<?xml version="1.0" encoding="utf-8"?>
<?xml-stylesheet type="text/xsl" href="rss1.xsl"?>
<rss version="2.0" xmlns:atom="http://www.w3.org/2005/Atom" xmlns:content="http://purl.org/rss/1.0/modules/content/" xmlns:dc="http://purl.org/dc/elements/1.1/" xmlns:media="http://search.yahoo.com/mrss/">
<channel>
 <title>Getty</title>
 <link>http://www.gettyimg.com/</link>
 <atom:link href="http://www.gettyimg.com/" rel="self" type="application/rss+xml" />

 
                <item>
                <title><![CDATA[【HD Live Performances】WEB-RiP - Die Giovanni Zarrella Show E09 [18-11-23] - ZDF HD 1080p IPTV]]></title>
                <link><![CDATA[https://sharemania.us/threads/die-giovanni-zarrella-show-e09-18-11-23-zdf-hd-1080p-iptv.234846/]]></link>
                <description><![CDATA[<article>
<blockquote class="messageText SelectQuoteContainer ugc baseHtml">
<img src="https://i.imgur.com/ibUW0O3.jpg" class="bbCodeImage LbImage" alt="[​IMG]" data-url="https://i.imgur.com/ibUW0O3.jpg" style=""><br>
<br>
<div class="bbCodeBlock bbCodeCode">
<div class="type">Code:</div>
<pre>General
Complete name                            : Die Giovanni Zarrella Show E09 [18-11-23]- ZDF HD 1080p IPTV.mkv
Format                                   : Matroska
Format version                           : Version 4
File size                                : 10.3 GiB
Duration                                 : 3 h 3 min
Overall bit rate                         : 8 008 kb/s
Encoded date                             : UTC 2023-12-29 01:53:42
Writing application                      : mkvmerge v55.0.0 ('Waiting For Space') 64-bit
Writing library                          : libebml v1.4.2 + libmatroska v1.6.4
Video
ID                                       : 1
Format                                   : AVC
Format/Info                              : Advanced Video Codec
Format profile                           : Main@L4.2
Format settings                          : CABAC / 2 Ref Frames
Format settings, CABAC                   : Yes
Format settings, Reference frames        : 2 frames
Codec ID                                 : V_MPEG4/ISO/AVC
Duration                                 : 3 h 3 min
Bit rate                                 : 7 619 kb/s
Width                                    : 1 920 pixels
Height                                   : 1 080 pixels
Display aspect ratio                     : 16:9
Frame rate mode                          : Constant
Frame rate                               : 50.000 FPS
Color space                              : YUV
Chroma subsampling                       : 4:2:0
Bit depth                                : 8 bits
Scan type                                : Progressive
Bits/(Pixel*Frame)                       : 0.073
Stream size                              : 9.77 GiB (95%)
Language                                 : German
Default                                  : Yes
Forced                                   : No
Audio #1
ID                                       : 2
Format                                   : E-AC-3
Format/Info                              : Enhanced AC-3
Commercial name                          : Dolby Digital Plus
Codec ID                                 : A_EAC3
Duration                                 : 3 h 3 min
Bit rate mode                            : Constant
Bit rate                                 : 256 kb/s
Channel(s)                               : 6 channels
Channel layout                           : L R C LFE Ls Rs
Sampling rate                            : 48.0 kHz
Frame rate                               : 31.250 FPS (1536 SPF)
Compression mode                         : Lossy
Stream size                              : 336 MiB (3%)
Language                                 : German
Service kind                             : Complete Main
Default                                  : Yes
Forced                                   : No
Audio #2
ID                                       : 3
Format                                   : AAC LC
Format/Info                              : Advanced Audio Codec Low Complexity
Codec ID                                 : A_AAC-2
Duration                                 : 3 h 3 min
Bit rate                                 : 128 kb/s
Channel(s)                               : 2 channels
Channel layout                           : L R
Sampling rate                            : 48.0 kHz
Frame rate                               : 46.875 FPS (1024 SPF)
Compression mode                         : Lossy
Stream size                              : 168 MiB (2%)
Language                                 : German
Default                                  : No
Forced                                   : No
Text
ID                                       : 4
Format                                   : UTF-8
Codec ID                                 : S_TEXT/UTF8
Codec ID/Info                            : UTF-8 Plain Text
Duration                                 : 3 h 3 min
Bit rate                                 : 56 b/s
Count of elements                        : 2089
Stream size                              : 75.3 KiB (0%)
Language                                 : German
Default                                  : No
Forced                                   : No
</pre>
</div>Pixeldrain:<br>
<div class="bbCodeBlock bbCodeVfcHH HiddenContent">
<div class="attribution type">Hidden Content:</div>
<blockquote>You must reply before you can see the hidden data contained here.</blockquote>
</div>
<div class="messageTextEndMarker">&nbsp;</div>
</blockquote>
</article>]]></description>
                <author><![CDATA[LLAVE1]]></author>
                </item>

                
                <item>
                <title><![CDATA[【Albums (lossless)】DSF - The Beatles - Rubber Soul [DSD 128 1/5.64mhz]]]></title>
                <link><![CDATA[https://sharemania.us/threads/the-beatles-rubber-soul-dsd-128-1-5-64mhz.234844/]]></link>
                <description><![CDATA[<article>
<blockquote class="messageText SelectQuoteContainer ugc baseHtml">
<img src="https://ia601608.us.archive.org/14/items/the-beatles-rubber-soul-sacd/01%20front.jpg" class="bbCodeImage LbImage" alt="[​IMG]" data-url="https://ia601608.us.archive.org/14/items/the-beatles-rubber-soul-sacd/01%20front.jpg" style=""> <br>
<br>
<b>Artist: </b>The Beatles <br>
<b>Album: </b>Rubber Soul <br>
<b>Style:</b> Rock, Beat <br>
<b>Year: </b>1965 (2012) <br>
<b>Quality: </b>DSD 128 (Record/Upload 1/5.64mhz) <br>
<b>Bitrate:</b> lossless <br>
<b>Tracks: </b>14 <br>
<b>Size: </b>2.8 GB <br>
<b>Release: </b>rip and authoring to image+.cue by azazu2009<br>
<br>
<b>Tracklist:</b><br>
------------------------<br>
01. Drive My Car<br>
02. Norwegian Wood<br>
03. You Won't See Me<br>
04. Nowhere Man<br>
05. Think For Yourself<br>
06. The Word<br>
07. Michelle<br>
08. What Goes On<br>
09. Girl<br>
10. I'm Looking Through You<br>
11. In My Life<br>
12. Wait<br>
13. If I Needed Someone<br>
14. Run For Your Life<br>
<br>
<b><span style="color: #ff0000">DOWNLOAD</span></b><br>
<div class="bbCodeBlock bbCodeVfcHH HiddenContent">
<div class="attribution type">Hidden Content:</div>
<blockquote>You must reply before you can see the hidden data contained here.</blockquote>
</div>
<div class="messageTextEndMarker">&nbsp;</div>
</blockquote>
</article>]]></description>
                <author><![CDATA[olobersykes99]]></author>
                </item>

                
                <item>
                <title><![CDATA[【Albums (lossless)】DSF - The Beatles - A Hard Day's Night [DSD 128 1/5.64mhz]]]></title>
                <link><![CDATA[https://sharemania.us/threads/the-beatles-a-hard-days-night-dsd-128-1-5-64mhz.234843/]]></link>
                <description><![CDATA[<article>
<blockquote class="messageText SelectQuoteContainer ugc baseHtml">
<img src="https://ia801606.us.archive.org/14/items/the-beatles-a-hard-days-night-sacd/01%20Front.jpg" class="bbCodeImage LbImage" alt="[​IMG]" data-url="https://ia801606.us.archive.org/14/items/the-beatles-a-hard-days-night-sacd/01%20Front.jpg" style=""> <br>
<br>
<b>Artist: </b>The Beatles <br>
<b>Album: </b>A Hard Day's Night <br>
<b>Style: </b>Rock, Beat, Rock and Roll <br>
Year: 1964 <br>
<b>Quality: </b>DSD 128 (Record/Upload 1/5.64mhz) <br>
<b>Bitrate: </b>lossless <br>
<b>Tracks:</b> 13 <br>
<b>Size:</b> 2.56 GB<br>
<b>Release:</b> rip and authoring to image+.cue by azazu2009<br>
<br>
<b>Tracklist:</b><br>
------------------------<br>
01. A Hard Day's Night<br>
02. I Should Have Known Better<br>
03. If I fell<br>
04. I'm Happy Just To Dance With You<br>
05. And I Love Her<br>
06. Tell Me Why<br>
07. Can't Buy Me Love<br>
08. Any Time At All<br>
09. I'll Cry Instead<br>
10. Things We Said Today<br>
11. When I Get Home<br>
12. You Can't Do That<br>
13. I'll Be Back<br>
<br>
<b><span style="color: #ff0000">DOWNLOAD</span></b><br>
<div class="bbCodeBlock bbCodeVfcHH HiddenContent">
<div class="attribution type">Hidden Content:</div>
<blockquote>You must reply before you can see the hidden data contained here.</blockquote>
</div>
<div class="messageTextEndMarker">&nbsp;</div>
</blockquote>
</article>]]></description>
                <author><![CDATA[olobersykes99]]></author>
                </item>

                
                <item>
                <title><![CDATA[【Albums (lossless)】DFF - The Beatles - Revolver [DSD 128 1/5.64mhz]]]></title>
                <link><![CDATA[https://sharemania.us/threads/the-beatles-revolver-dsd-128-1-5-64mhz.234845/]]></link>
                <description><![CDATA[<article>
<blockquote class="messageText SelectQuoteContainer ugc baseHtml">
thanks!
<div class="messageTextEndMarker">&nbsp;</div>
</blockquote>
</article>]]></description>
                <author><![CDATA[olobersykes99]]></author>
                </item>

                </channel></rss>